{
    "asset" : {
        "generator" : "Khronos glTF Blender I/O v1.2.75",
        "version" : "2.0"
    },
    "scene" : 0,
    "scenes" : [
        {
            "name" : "Scene",
            "nodes" : [
                8
            ]
        }
    ],
    "nodes" : [
        {
            "mesh" : 0,
            "name" : "body",
            "translation" : [
                0,
                -0.17014005780220032,
                0
            ]
        },
        {
            "mesh" : 1,
            "name" : "wheel_FL",
            "rotation" : [
                0,
                0,
                -0.7071067690849304,
                0.7071068286895752
            ],
            "scale" : [
                0.5725265741348267,
                0.33219218254089355,
                0.5725265741348267
            ],
            "translation" : [
                1.4500000476837158,
                0.5937460660934448,
                1.8912631273269653
            ]
        },
        {
            "mesh" : 2,
            "name" : "wheel_FR",
            "rotation" : [
                0,
                0,
                -0.7071067690849304,
                0.7071068286895752
            ],
            "scale" : [
                0.5725265741348267,
                0.33219218254089355,
                0.5725265741348267
            ],
            "translation" : [
                -1.4500000476837158,
                0.5937460660934448,
                1.8912631273269653
            ]
        },
        {
            "mesh" : 3,
            "name" : "wheel_RL",
            "rotation" : [
                0,
                0,
                -0.7071067690849304,
                0.7071068286895752
            ],
            "scale" : [
                0.5725265741348267,
                0.33219218254089355,
                0.5725265741348267
            ],
            "translation" : [
                1.4500000476837158,
                0.5358842015266418,
                -2.652115821838379
            ]
        },
        {
            "mesh" : 4,
            "name" : "wheel_RR",
            "rotation" : [
                0,
                0,
                -0.7071067690849304,
                0.7071068286895752
            ],
            "scale" : [
                0.5725265741348267,
                0.33219218254089355,
                0.5725265741348267
            ],
            "translation" : [
                -1.4500000476837158,
                0.5358842015266418,
                -2.652115821838379
            ]
        },
        {
            "children" : [
                1,
                2,
                3,
                4
            ],
            "name" : "wheels",
            "translation" : [
                0,
                -0.13903982937335968,
                0
            ]
        },
        {
            "children" : [
                0,
                5
            ],
            "name" : "car"
        },
        {
            "mesh" : 5,
            "name" : "world",
            "rotation" : [
                0,
                0,
                -0.7071067690849304,
                0.7071067690849304
            ],
            "translation" : [
                0,
                -200,
                0
            ]
        },
        {
            "children" : [
                6,
                7
            ],
            "name" : "scene"
        }
    ],
    "materials" : [
        {
            "doubleSided" : true,
            "emissiveFactor" : [
                0,
                0,
                0
            ],
            "name" : "Material",
            "pbrMetallicRoughness" : {
                "baseColorTexture" : {
                    "index" : 0,
                    "texCoord" : 0
                },
                "metallicFactor" : 0,
                "roughnessFactor" : 0.4000000059604645
            }
        }
    ],
    "meshes" : [
        {
            "name" : "body_mesh",
            "primitives" : [
                {
                    "attributes" : {
                        "POSITION" : 0,
                        "NORMAL" : 1,
                        "TEXCOORD_0" : 2
                    },
                    "indices" : 3,
                    "material" : 0
                }
            ]
        },
        {
            "name" : "wheel_FL_mesh",
            "primitives" : [
                {
                    "attributes" : {
                        "POSITION" : 4,
                        "NORMAL" : 5,
                        "TEXCOORD_0" : 6
                    },
                    "indices" : 7,
                    "material" : 0
                }
            ]
        },
        {
            "name" : "wheel_FR_mesh",
            "primitives" : [
                {
                    "attributes" : {
                        "POSITION" : 8,
                        "NORMAL" : 9,
                        "TEXCOORD_0" : 10
                    },
                    "indices" : 7,
                    "material" : 0
                }
            ]
        },
        {
            "name" : "wheel_RL_mesh",
            "primitives" : [
                {
                    "attributes" : {
                        "POSITION" : 11,
                        "NORMAL" : 12,
                        "TEXCOORD_0" : 13
                    },
                    "indices" : 7,
                    "material" : 0
                }
            ]
        },
        {
            "name" : "wheel_RR_mesh",
            "primitives" : [
                {
                    "attributes" : {
                        "POSITION" : 14,
                        "NORMAL" : 15,
                        "TEXCOORD_0" : 16
                    },
                    "indices" : 7,
                    "material" : 0
                }
            ]
        },
        {
            "name" : "world_mesh",
            "primitives" : [
                {
                    "attributes" : {
                        "POSITION" : 17,
                        "NORMAL" : 18,
                        "TEXCOORD_0" : 19
                    },
                    "indices" : 20,
                    "material" : 0
                }
            ]
        }
    ],
    "textures" : [
        {
            "sampler" : 0,
            "source" : 0
        }
    ],
    "images" : [
        {
            "bufferView" : 4,
            "mimeType" : "image/png",
            "name" : "color_palette_8x8"
        }
    ],
    "accessors" : [
        {
            "bufferView" : 0,
            "componentType" : 5126,
            "count" : 474,
            "max" : [
                1.8061604499816895,
                3.637622833251953,
                4.018619060516357
            ],
            "min" : [
                -1.8061604499816895,
                0.4303922653198242,
                -3.993079662322998
            ],
            "type" : "VEC3"
        },
        {
            "bufferView" : 1,
            "componentType" : 5126,
            "count" : 474,
            "type" : "VEC3"
        },
        {
            "bufferView" : 2,
            "componentType" : 5126,
            "count" : 474,
            "type" : "VEC2"
        },
        {
            "bufferView" : 3,
            "componentType" : 5123,
            "count" : 744,
            "type" : "SCALAR"
        },
        {
            "bufferView" : 5,
            "componentType" : 5126,
            "count" : 1112,
            "max" : [
                1,
                0.5927817821502686,
                1
            ],
            "min" : [
                -1,
                -0.5927817821502686,
                -1
            ],
            "type" : "VEC3"
        },
        {
            "bufferView" : 6,
            "componentType" : 5126,
            "count" : 1112,
            "type" : "VEC3"
        },
        {
            "bufferView" : 7,
            "componentType" : 5126,
            "count" : 1112,
            "type" : "VEC2"
        },
        {
            "bufferView" : 8,
            "componentType" : 5123,
            "count" : 1140,
            "type" : "SCALAR"
        },
        {
            "bufferView" : 9,
            "componentType" : 5126,
            "count" : 1112,
            "max" : [
                1,
                0.5927817821502686,
                1
            ],
            "min" : [
                -1,
                -0.5927817821502686,
                -1
            ],
            "type" : "VEC3"
        },
        {
            "bufferView" : 10,
            "componentType" : 5126,
            "count" : 1112,
            "type" : "VEC3"
        },
        {
            "bufferView" : 11,
            "componentType" : 5126,
            "count" : 1112,
            "type" : "VEC2"
        },
        {
            "bufferView" : 12,
            "componentType" : 5126,
            "count" : 1112,
            "max" : [
                1,
                0.5927817821502686,
                1
            ],
            "min" : [
                -1,
                -0.5927817821502686,
                -1
            ],
            "type" : "VEC3"
        },
        {
            "bufferView" : 13,
            "componentType" : 5126,
            "count" : 1112,
            "type" : "VEC3"
        },
        {
            "bufferView" : 14,
            "componentType" : 5126,
            "count" : 1112,
            "type" : "VEC2"
        },
        {
            "bufferView" : 15,
            "componentType" : 5126,
            "count" : 1112,
            "max" : [
                1,
                0.5927817821502686,
                1
            ],
            "min" : [
                -1,
                -0.5927817821502686,
                -1
            ],
            "type" : "VEC3"
        },
        {
            "bufferView" : 16,
            "componentType" : 5126,
            "count" : 1112,
            "type" : "VEC3"
        },
        {
            "bufferView" : 17,
            "componentType" : 5126,
            "count" : 1112,
            "type" : "VEC2"
        },
        {
            "bufferView" : 18,
            "componentType" : 5126,
            "count" : 16256,
            "max" : [
                199.99964904785156,
                200,
                199.9993133544922
            ],
            "min" : [
                -199.99966430664062,
                -200,
                -200
            ],
            "type" : "VEC3"
        },
        {
            "bufferView" : 19,
            "componentType" : 5126,
            "count" : 16256,
            "type" : "VEC3"
        },
        {
            "bufferView" : 20,
            "componentType" : 5126,
            "count" : 16256,
            "type" : "VEC2"
        },
        {
            "bufferView" : 21,
            "componentType" : 5123,
            "count" : 24192,
            "type" : "SCALAR"
        }
    ],
    "bufferViews" : [
        {
            "buffer" : 0,
            "byteLength" : 5688,
            "byteOffset" : 0
        },
        {
            "buffer" : 0,
            "byteLength" : 5688,
            "byteOffset" : 5688
        },
        {
            "buffer" : 0,
            "byteLength" : 3792,
            "byteOffset" : 11376
        },
        {
            "buffer" : 0,
            "byteLength" : 1488,
            "byteOffset" : 15168
        },
        {
            "buffer" : 0,
            "byteLength" : 289,
            "byteOffset" : 16656
        },
        {
            "buffer" : 0,
            "byteLength" : 13344,
            "byteOffset" : 16948
        },
        {
            "buffer" : 0,
            "byteLength" : 13344,
            "byteOffset" : 30292
        },
        {
            "buffer" : 0,
            "byteLength" : 8896,
            "byteOffset" : 43636
        },
        {
            "buffer" : 0,
            "byteLength" : 2280,
            "byteOffset" : 52532
        },
        {
            "buffer" : 0,
            "byteLength" : 13344,
            "byteOffset" : 54812
        },
        {
            "buffer" : 0,
            "byteLength" : 13344,
            "byteOffset" : 68156
        },
        {
            "buffer" : 0,
            "byteLength" : 8896,
            "byteOffset" : 81500
        },
        {
            "buffer" : 0,
            "byteLength" : 13344,
            "byteOffset" : 90396
        },
        {
            "buffer" : 0,
            "byteLength" : 13344,
            "byteOffset" : 103740
        },
        {
            "buffer" : 0,
            "byteLength" : 8896,
            "byteOffset" : 117084
        },
        {
            "buffer" : 0,
            "byteLength" : 13344,
            "byteOffset" : 125980
        },
        {
            "buffer" : 0,
            "byteLength" : 13344,
            "byteOffset" : 139324
        },
        {
            "buffer" : 0,
            "byteLength" : 8896,
            "byteOffset" : 152668
        },
        {
            "buffer" : 0,
            "byteLength" : 195072,
            "byteOffset" : 161564
        },
        {
            "buffer" : 0,
            "byteLength" : 195072,
            "byteOffset" : 356636
        },
        {
            "buffer" : 0,
            "byteLength" : 130048,
            "byteOffset" : 551708
        },
        {
            "buffer" : 0,
            "byteLength" : 48384,
            "byteOffset" : 681756
        }
    ],
    "samplers" : [
        {
            "magFilter" : 9728,
            "minFilter" : 9984
        }
    ],
    "buffers" : [
        {
            "byteLength" : 730140,
            "uri" : "data:application/octet-stream;base64,"
        }
    ]
}
